PathFileType	4	(X/Y/Z)	C:/Users/beibeiliu/ov580/test_trc\sequence.9_training_dense_left.trc
DataRate	CameraRate	NumFrames	NumMarkers	Units	OrigDataRate	OrigDataStartFrame	OrigNumFrames
120	120	17	19	mm	120	1	77
Frame#	Time	ThumbCMC			ThumbMCP			ThumbIP			ThumbTip			IndexMCP			IndexPIP			IndexTip			MiddleMCP			MiddlePIP			MiddleTip			RingMCP			RingPIP			RingTip			PinkyMCP			PinkyPIP			PinkyTip			BackHand1			BackHand2			BackHand3	
		X0	Y0	Z0	X1	Y1	Z1	X2	Y2	Z2	X3	Y3	Z3	X4	Y4	Z4	X5	Y5	Z5	X6	Y6	Z6	X7	Y7	Z7	X8	Y8	Z8	X9	Y9	Z9	X10	Y10	Z10	X11	Y11	Z11	X12	Y12	Z12	X13	Y13	Z13	X14	Y14	Z14	X15	Y15	Z15	X16	Y16	Z16	X17	Y17	Z17	X18	Y18	Z18	
0	0	-119.689	10.8441	48.5999	-107.08	-8.86781	31.3767	-97.2399	-21.0298	12.0447	-97.2556	-35.708	-9.63427	-126.834	7.52019	-19.6858	-120.747	-6.71299	-39.9703	-116.598	-33.2319	-54.7415	-146.079	4.71989	-27.4338	-145.307	-11.2402	-50.4303	-144.783	-37.8993	-61.9612	-164.269	1.48502	-23.4282	-164.442	-10.4712	-41.3746	-162.328	-30.6314	-54.5221	-186.573	-3.52365	-9.76698	-187.021	-14.3516	-24.148	-180.445	-31.5091	-39.3063	-167.566	23.0109	17.5825	-170.119	31.0645	47.4991	-143.554	30.7187	31.8019	
1	0.00833333	-121.755	9.70491	46.8675	-106.636	-8.80582	30.6401	-102.979	-20.4942	12.113	-98.8927	-36.1675	-8.0054	-127.629	6.9996	-20.6758	-122.627	-9.28103	-42.8892	-119.16	-33.9636	-54.5519	-145.635	3.63426	-29.365	-144.95	-9.55119	-48.3421	-145.353	-38.3176	-61.4574	-169.253	1.99836	-21.3338	-163.785	-11.1274	-40.9332	-161.215	-34.8376	-56.9101	-184.235	-1.95025	-5.77494	-187.173	-17.3661	-27.8124	-184.077	-30.4829	-39.7753	-170.566	22.0744	21.728	-169.458	31.3236	45.1325	-143.004	29.2749	30.8325	
2	0.0166667	-122.056	9.78511	48.929	-108.373	-7.92811	33.3805	-99.5276	-22.1352	9.69147	-99.2584	-33.73	-3.70128	-121.7	5.64427	-23.2126	-122.242	-7.95458	-40.7157	-114.572	-29.9548	-52.5249	-147.754	5.25446	-26.5148	-144.578	-10.6513	-48.6606	-141.924	-36.1361	-60.8865	-163.782	3.29689	-19.4506	-163.074	-14.3817	-43.8226	-161.796	-34.2752	-55.8224	-185.473	-0.98302	-7.54459	-187.152	-15.4088	-26.253	-181.555	-30.5227	-38.2993	-170.866	23.0605	20.8435	-168.519	30.0982	45.0841	-144.581	29.716	33.5132	
3	0.025	-118.251	9.55968	44.7728	-108.786	-8.10436	30.3983	-100.736	-20.5668	11.5139	-97.211	-33.1411	-2.69273	-123.866	5.73033	-22.5864	-117.029	-9.77809	-42.8778	-119.294	-29.0375	-52.1678	-144.766	5.59312	-25.0103	-143.895	-12.4391	-49.8557	-143.807	-37.3473	-60.8994	-162.668	2.76962	-22.1096	-163.354	-13.4192	-43.0668	-159.667	-29.4318	-53.7284	-180.186	-0.467293	-6.43928	-182.34	-12.562	-27.3324	-181.638	-28.5243	-40.8823	-168.243	21.8422	18.1626	-171.805	30.3577	43.3722	-142.324	29.8505	30.6045	
4	0.0333333	-122.955	10.3875	48.1121	-107.062	-6.81625	28.1759	-97.4562	-18.2936	11.9166	-93.9784	-30.8917	-6.17987	-121.016	8.13553	-19.5587	-118.495	-4.91329	-40.2819	-113.849	-26.8991	-53.6248	-141.541	4.96355	-30.7364	-140.136	-13.5191	-51.0567	-140.603	-33.7849	-62.4866	-166.477	1.64857	-21.4276	-160.804	-13.3146	-44.7768	-159.662	-32.9193	-56.4778	-184.53	-2.25465	-9.15816	-179.827	-11.4907	-26.3466	-180.326	-27.3424	-42.1849	-168.845	23.4788	17.9992	-165.911	31.2591	41.918	-142.862	28.9652	30.3978	
5	0.0416667	-122.255	11.7395	44.1366	-107.324	-1.62135	27.9431	-99.0916	-11.1425	6.04767	-91.7702	-22.4599	-9.79702	-120.618	8.02026	-18.8358	-121.843	-7.84405	-43.0452	-115.14	-24.3331	-55.5792	-145.196	3.2314	-29.9158	-140.586	-10.1814	-50.1641	-142.749	-31.8996	-65.7842	-165.977	0.47158	-22.1598	-162.524	-13.5547	-44.9665	-160.605	-27.6119	-57.6422	-181.189	-1.74908	-9.90025	-178.7	-10.5487	-25.2498	-179.242	-25.7767	-41.9533	-165.994	23.5113	21.0769	-168.857	30.2134	43.0887	-140.069	29.4715	31.5381	
6	0.05	-119.767	14.9582	44.2655	-103.833	5.37672	25.2646	-99.4835	-2.48444	7.2863	-92.8732	-8.79951	-12.128	-124.832	5.35404	-24.8756	-119.778	-4.40304	-40.1426	-119.163	-19.3883	-59.1285	-144.853	1.64275	-31.4513	-139.271	-7.79079	-48.353	-139.165	-24.8249	-72.1806	-159.807	0.457782	-21.0735	-159.601	-11.148	-43.0483	-154.956	-22.6606	-64.2367	-181.293	-3.77281	-11.3827	-177.672	-13.5421	-31.0277	-176.485	-22.0333	-46.4926	-164.544	20.6999	20.6767	-170.553	29.5008	43.2565	-143.668	31.0283	31.0076	
7	0.0583333	-120.439	16.6891	48.592	-104.163	9.60098	27.14	-96.7916	5.39837	1.13134	-90.4571	-1.00794	-15.1713	-124.03	6.2135	-24.7878	-120.15	-5.33158	-44.9201	-122.075	-13.9928	-61.4439	-141.9	0.356726	-31.77	-139.068	-8.59077	-48.7404	-134.903	-19.8828	-75.6701	-158.11	-1.00492	-23.234	-160.32	-11.8397	-43.9891	-156.875	-18.9267	-62.0119	-178.613	-4.24305	-14.8285	-174.473	-10.8426	-28.5091	-172.684	-19.4109	-50.4137	-169.468	19.1726	18.9111	-170.026	28.0585	40.1296	-140.626	31.6086	29.096	
8	0.0666667	-121.084	17.3359	45.5983	-105.855	12.3523	24.1755	-101.638	7.5353	2.97378	-95.4497	1.73849	-19.1336	-124.273	7.44035	-22.6372	-122.734	-3.36005	-45.8372	-118.873	-11.2564	-66.7402	-141.515	2.20826	-29.0793	-141.255	-8.75051	-52.2548	-138.223	-14.9916	-73.874	-159.367	-1.79935	-25.1901	-159.145	-10.3313	-43.8071	-152.891	-16.6227	-64.9066	-178.495	-3.83169	-10.4012	-173.076	-9.38545	-27.4367	-172.324	-14.8001	-49.0161	-166.507	18.249	17.0217	-171.268	27.8598	42.1817	-142.633	29.3744	29.6144	
9	0.075	-123.93	18.3812	47.0431	-102.43	14.5828	24.7242	-97.1197	9.32762	4.16564	-97.4413	0.604631	-14.3872	-124.095	7.00168	-23.4844	-126.335	-1.25636	-40.8668	-124.801	-7.83246	-63.8724	-140.545	1.98836	-31.0932	-138.337	-5.67887	-49.9348	-138.997	-11.8686	-72.3554	-156.459	-0.856741	-25.6402	-160.633	-8.68302	-42.141	-155.251	-15.3245	-63.0793	-174.163	-3.16339	-8.27365	-173.521	-9.94791	-29.5587	-170.237	-13.4216	-47.1162	-169.825	18.4696	17.0305	-171.004	28.5089	37.5402	-142.404	30.6736	29.8083	
10	0.0833333	-122.113	21.1612	44.771	-104.706	15.7994	25.3144	-99.4544	8.85498	2.52114	-95.3449	0.870426	-17.5288	-127.278	6.32564	-24.1112	-124.769	-0.479896	-42.2834	-127.094	-7.01674	-66.0862	-142.719	2.02686	-32.6807	-140.583	-4.77259	-48.9692	-144.71	-9.81412	-72.462	-163.657	-1.50333	-23.6619	-161.102	-7.20551	-42.3185	-156.326	-11.8982	-64.7426	-174.642	-2.52047	-8.23348	-173.604	-7.45996	-28.7464	-171.004	-11.4426	-46.298	-169.986	19.3297	17.2309	-170.256	28.4746	36.6132	-144.64	31.815	27.5992	
11	0.0916667	-125.18	19.4439	47.3877	-101.827	16.3218	26.9967	-97.1116	9.58055	3.96545	-97.4322	0.726725	-14.1415	-125.961	7.27498	-24.4233	-125.357	0.0616556	-44.4335	-127.28	-4.4154	-62.3036	-143.316	3.53462	-29.4582	-143.661	-3.46896	-50.7836	-144.429	-6.41269	-75.8245	-162.761	-0.129753	-21.1995	-158.557	-5.80349	-41.055	-159.898	-9.65277	-60.9023	-172.904	-1.51772	-12.5926	-172.379	-6.2904	-25.7469	-173.85	-9.92201	-47.9082	-169.532	20.8306	15.1781	-172.784	30.4255	38.087	-141.033	30.2578	26.9887	
12	0.1	-125.249	20.9898	43.2689	-107.326	14.9885	26.3744	-96.3618	9.49415	4.33787	-92.9765	2.26033	-14.93	-125.034	8.30448	-25.399	-123.129	2.50908	-43.5868	-125.47	-1.48781	-61.3927	-141.396	4.60245	-31.1867	-143.174	-1.88441	-52.2749	-145.778	-3.36536	-72.1772	-164.077	0.788188	-22.8711	-157.429	-4.15553	-44.1661	-159.14	-7.52922	-62.543	-177.247	-1.70836	-8.70877	-174.254	-5.66902	-25.2753	-172.074	-7.14202	-48.511	-164.629	19.5028	14.9719	-170.164	31.114	40.7526	-143.335	30.741	29.2109	
13	0.108333	-123.531	19.8792	47.6922	-103.188	16.4684	25.4029	-96.9851	10.8561	2.53754	-93.4094	2.17223	-16.032	-128.577	8.61802	-21.3366	-125.77	3.63372	-40.2626	-126.28	-0.136018	-64.9706	-143.383	5.05184	-32.7877	-141.708	-0.393626	-51.7067	-143.611	-1.55214	-71.7308	-161.038	1.05103	-24.5949	-159.608	-3.84726	-40.4746	-158.254	-5.86772	-60.7729	-173.315	-0.627097	-12.3558	-173.9	-6.30378	-30.6856	-170.526	-6.1233	-47.6679	-165.672	18.5639	15.3274	-170.035	31.295	38.1782	-143.969	33.1372	30.6735	
14	0.116667	-122.582	21.9325	46.8817	-104.249	17.5934	28.5927	-96.4459	11.8686	5.00444	-95.0385	4.11817	-14.3073	-129.138	9.0268	-24.527	-127.756	4.022	-42.1455	-126.699	1.13004	-64.6774	-142.709	6.56602	-29.714	-141.428	1.15818	-50.4713	-146.043	0.251193	-77.2509	-161.02	2.34501	-23.9917	-160.065	-2.05384	-43.2526	-157.685	-3.85573	-60.5799	-178.096	-0.200249	-13.2952	-175.903	-3.09188	-26.6472	-173.679	-3.00215	-50.2537	-170.537	20.6442	17.0716	-169.161	29.3141	38.3232	-144.952	31.8532	27.9077	
15	0.125	-123.664	22.5106	44.3917	-106.714	18.7271	23.4635	-98.9537	14.4713	-1.69024	-94.7008	5.85754	-15.7988	-128.653	13.4358	-25.5306	-126.356	9.07521	-45.4899	-131.509	7.81957	-69.7057	-148.053	11.4641	-31.2924	-143.357	7.07295	-55.6634	-147.053	7.98817	-75.7178	-164.967	8.44021	-24.6429	-161.515	3.98254	-43.9173	-162.599	3.12966	-64.2269	-181.396	6.40966	-13.9288	-176.318	3.88028	-29.9068	-173.498	4.72358	-50.6792	-168.436	23.9385	13.2622	-169.904	34.2606	37.4872	-142.719	35.8268	23.7173	
16	0.133333	-126.315	27.9624	40.2536	-109.469	22.6351	14.6483	-105.796	17.2763	-5.3345	-103.7	10.4726	-27.3283	-135.76	23.8556	-28.936	-138.012	19.351	-53.9184	-138.61	19.1304	-73.9802	-155.995	23.837	-34.8517	-155.458	21.3509	-59.0895	-156.643	23.0706	-80.9546	-168.559	22.1487	-30.3595	-171.838	20.2499	-51.5611	-171.296	20.1661	-73.5899	-186.253	21.7074	-18.7211	-184.589	19.7788	-33.9617	-182.43	18.9201	-53.4344	-172.836	38.2214	13.7468	-170.037	46.9359	32.4661	-146.382	43.9869	19.1214	
